<?xml version="1.0" standalone="no"?><!DOCTYPE svg PUBLIC "-//W3C//DTD SVG 1.1//EN" "http://www.w3.org/Graphics/SVG/1.1/DTD/svg11.dtd"><svg t="1693121097700" class="icon" viewBox="0 0 1024 1024" version="1.1" xmlns="http://www.w3.org/2000/svg" p-id="5077" xmlns:xlink="http://www.w3.org/1999/xlink" width="200" height="200"><path d="M626.56663703 542.0032c96.11946667-43.69066667 163.11182222-140.65967408 163.11182222-253.40586666 0-153.64551111-124.15431111-278.28527408-277.31437036-278.28527408S235.04971852 134.95182222 235.04971852 288.7186963c0 112.74619259 66.99235555 209.7152 163.11182223 253.40586667-209.7152 48.54518518-369.67158518 227.43419259-390.3032889 447.22251852H1016.86992592c-20.51034075-219.90968889-180.46672592-398.67733333-390.30328889-447.34388149z m-114.20254814-70.99733333c-54.97742222 0-102.30897778-29.73392592-126.33884444-73.0605037-9.8304-2.42725925-17.11217778-10.43721482-17.11217778-20.51034075 0-11.89357037 10.19448889-21.60260741 22.69487408-21.6026074 9.8304 0 17.96171852 6.06814815 21.11715555 14.4421926h9.10222222c14.80628148 33.86026667 49.75881482 57.52604445 90.53677037 57.52604443 40.77795555 0 75.73048889-23.78714075 90.53677036-57.52604443h9.10222223c3.15543703-8.37404445 11.28675555-14.44219259 21.11715555-14.4421926 12.50038518 0 22.69487408 9.70903703 22.69487408 21.6026074 0 10.07312592-7.40314075 18.08308148-17.11217778 20.51034075-24.15122963 43.32657778-71.36142222 73.0605037-126.33884444 73.0605037z" fill="#8a8a8a" p-id="5078"></path></svg>