<?xml version="1.0" standalone="no"?><!DOCTYPE svg PUBLIC "-//W3C//DTD SVG 1.1//EN" "http://www.w3.org/Graphics/SVG/1.1/DTD/svg11.dtd"><svg t="1691501899984" class="icon" viewBox="0 0 1024 1024" version="1.1" xmlns="http://www.w3.org/2000/svg" p-id="5013" xmlns:xlink="http://www.w3.org/1999/xlink" width="200" height="200"><path d="M122.88 1001.24444445c-31.85777778 0-56.88888889-9.10222222-75.09333333-26.1688889-23.89333333-25.03111111-31.85777778-65.99111111-20.48-120.60444444 9.10222222-46.64888889 29.58222222-102.4 61.44-164.97777778 59.16444445-114.91555555 150.18666667-242.34666667 232.10666666-325.40444444 63.71555555-62.57777778 124.01777778-89.88444445 184.32-83.05777778 48.92444445 5.68888889 96.71111111 34.13333333 150.18666667 87.60888889s80.78222222 101.26222222 86.47111111 149.04888889c7.96444445 61.44-19.34222222 121.74222222-83.05777778 184.32-81.92 83.05777778-209.35111111 174.08-325.40444444 232.10666666-62.57777778 31.85777778-118.32888889 53.47555555-163.84 61.44-17.06666667 3.41333333-31.85777778 5.68888889-46.64888889 5.6888889z m362.95111111-687.21777778c-44.37333333 0-91.02222222 25.03111111-139.94666666 73.95555555-80.78222222 80.78222222-169.52888889 204.8-226.41777778 317.44-62.57777778 120.60444445-79.64444445 212.76444445-46.64888889 245.76 31.85777778 31.85777778 124.01777778 14.79111111 245.76-46.64888889 111.50222222-58.02666667 236.65777778-146.77333333 316.30222222-226.41777778l12.51555555 12.51555556-12.51555555-12.51555556c55.75111111-55.75111111 79.64444445-105.81333333 72.81777778-155.87555555-4.55111111-40.96-29.58222222-81.92-77.36888889-129.70666667s-88.74666667-72.81777778-129.70666667-77.36888888l-14.79111111-1.13777778z" fill="#1296db" p-id="5014"></path><path d="M642.84444445 380.01777778s105.81333333-62.57777778 138.80888888-139.94666667" fill="#1296db" p-id="5015"></path><path d="M651.94666667 394.80888889l-18.20444445-28.44444444 9.10222223 13.65333333-9.10222223-14.79111111c1.13777778 0 102.4-60.30222222 131.98222223-131.98222222l31.85777777 13.65333333c-35.27111111 81.92-141.08444445 145.63555555-145.63555555 147.91111111z" fill="#1296db" p-id="5016"></path><path d="M733.86666667 466.48888889l-39.82222222-3.41333334 5.68888888-34.13333333c45.51111111 6.82666667 78.50666667 1.13777778 94.43555556-17.06666667 20.48-22.75555555 10.24-60.30222222 10.24-60.30222222l-2.27555556-10.24 6.82666667-6.82666666c44.37333333-45.51111111 55.75111111-69.40444445 61.44-85.33333334 9.10222222-27.30666667 2.27555555-51.2-21.61777778-75.09333333a70.54222222 70.54222222 0 0 0-53.47555555-22.75555555c-55.75111111 2.27555555-109.22666667 62.57777778-109.22666667 62.57777777l-6.82666667 6.82666667-7.96444444-1.13777778c-26.16888889-3.41333333-45.51111111 2.27555555-58.02666667 14.79111111-22.75555555 25.03111111-21.61777778 72.81777778-19.34222222 89.88444445l-32.99555555 4.55111111c-1.13777778-2.27555555-12.51555555-76.23111111 27.30666666-117.19111111 19.34222222-20.48 45.51111111-28.44444445 78.50666667-26.16888889 17.06666667-18.20444445 69.40444445-65.99111111 127.43111111-68.26666667 29.58222222-1.13777778 55.75111111 10.24 78.50666666 32.99555556 32.99555555 32.99555555 43.23555555 70.54222222 29.58222223 110.36444444-11.37777778 32.99555555-37.54666667 64.85333333-62.57777778 91.02222222 3.41333333 18.20444445 4.55111111 55.75111111-19.34222222 83.05777778-19.34222222 20.48-47.78666667 31.85777778-86.47111111 31.85777778z" fill="#1296db" p-id="5017"></path><path d="M486.96888889 311.75111111c-2.27555555-2.27555555-51.2-39.82222222-45.51111111-91.02222222 3.41333333-34.13333333 29.58222222-62.57777778 78.50666667-87.60888889 2.27555555-10.24 7.96444445-30.72 18.20444444-50.06222222 27.30666667-53.47555555 64.85333333-60.30222222 89.88444444-58.02666667 32.99555555 4.55111111 56.88888889 18.20444445 71.68 40.96 32.99555555 48.92444445 11.37777778 124.01777778 10.24 127.43111111l-31.85777778-9.10222222c0-1.13777778 17.06666667-63.71555555-6.82666666-100.12444445-9.10222222-13.65333333-25.03111111-22.75555555-46.64888889-25.0311111-34.13333333-3.41333333-50.06222222 28.44444445-55.75111111 39.82222222-12.51555555 23.89333333-17.06666667 48.92444445-17.06666667 48.92444444l-2.27555555 9.10222222-7.96444445 3.41333334c-40.96 19.34222222-63.71555555 40.96-67.12888889 63.71555555-3.41333333 31.85777778 32.99555555 59.16444445 32.99555556 60.30222223l-20.48 27.30666666z m306.06222222 275.34222222c-45.51111111 0-78.50666667-38.68444445-79.64444444-40.96l26.16888888-21.61777778s28.44444445 32.99555555 59.16444445 28.44444445c23.89333333-3.41333333 46.64888889-27.30666667 65.99111111-69.40444445l4.55111111-7.96444444 7.96444445-1.13777778s26.16888889-4.55111111 50.06222222-18.20444444c43.23555555-21.61777778 39.82222222-46.64888889 38.68444444-55.75111111-2.27555555-21.61777778-10.24-36.40888889-25.03111111-46.64888889-29.58222222-19.34222222-81.92-11.37777778-98.98666667-5.68888889l-9.10222222-32.99555555c2.27555555-1.13777778 77.36888889-22.75555555 127.43111112 10.24 22.75555555 15.92888889 36.40888889 39.82222222 39.82222222 71.68 3.41333333 26.16888889-4.55111111 62.57777778-56.88888889 89.88444444-19.34222222 10.24-39.82222222 15.92888889-51.2 19.34222222-23.89333333 48.92444445-53.47555555 76.23111111-88.74666667 80.78222222h-10.24z m-382.29333333-55.75111111c-62.57777778-59.16444445-104.67555555-129.70666667-106.95111111-131.98222222l29.58222222-17.06666667-14.79111111 7.96444445 14.79111111-7.96444445c1.13777778 0 40.96 68.26666667 101.26222222 124.01777778l-23.89333333 25.03111111zM172.94222222 781.65333333c-38.68444445-38.68444445-70.54222222-92.16-71.68-94.43555555l29.58222223-17.06666667c1.13777778 0 30.72 51.2 65.9911111 86.47111111l-23.89333333 25.03111111z m-56.88888889-103.53777778l14.79111112-7.96444444-14.79111112 7.96444444z m365.22666667 155.87555556c-2.27555555-1.13777778-58.02666667-21.61777778-105.81333333-72.81777778l25.03111111-23.89333333c43.23555555 45.51111111 92.16 63.71555555 92.16 63.71555555l-11.37777778 32.99555556z" fill="#1296db" p-id="5018"></path></svg>