<?xml version="1.0" standalone="no"?><!DOCTYPE svg PUBLIC "-//W3C//DTD SVG 1.1//EN" "http://www.w3.org/Graphics/SVG/1.1/DTD/svg11.dtd"><svg t="1690336697661" class="icon" viewBox="0 0 1098 1024" version="1.1" xmlns="http://www.w3.org/2000/svg" p-id="5500" xmlns:xlink="http://www.w3.org/1999/xlink" width="214.453125" height="200"><path d="M387.121951 636.878049m-387.121951 0a387.121951 387.121951 0 1 0 774.243902 0 387.121951 387.121951 0 1 0-774.243902 0Z" fill="#FADEE3" p-id="5501"></path><path d="M1010.263415 523.825951C997.276098 677.937951 863.157073 799.219512 699.317073 799.219512s-297.959024-121.281561-310.946341-275.393561A99.902439 99.902439 0 0 1 299.707317 424.585366V224.780488a99.902439 99.902439 0 0 1 99.902439-99.902439h46.454634a319.238244 319.238244 0 0 1 506.505366 0H999.02439a99.902439 99.902439 0 0 1 99.902439 99.902439v199.804878a99.902439 99.902439 0 0 1-88.663414 99.240585zM699.317073 749.268293c135.992195 0 247.758049-98.578732 260.870244-224.780488H438.446829c13.112195 126.201756 124.878049 224.780488 260.870244 224.780488z m0-699.317073a267.776 267.776 0 0 0-187.067317 74.926829h374.134634A267.776 267.776 0 0 0 699.317073 49.95122z m349.658537 187.317073a62.439024 62.439024 0 0 0-62.439025-62.439025H412.097561a62.439024 62.439024 0 0 0-62.439024 62.439025v174.829268a62.439024 62.439024 0 0 0 62.439024 62.439024h574.439024a62.439024 62.439024 0 0 0 62.439025-62.439024V237.268293z" fill="#040405" p-id="5502"></path><path d="M774.243902 599.414634c0 34.478829-33.592195 62.439024-74.926829 62.439025s-74.926829-27.960195-74.926829-62.439025h149.853658zM412.097561 237.268293h112.390244v49.951219h-112.390244v-49.951219z m149.853659 0h49.951219v49.951219h-49.951219v-49.951219z" fill="#E13455" p-id="5503"></path></svg>