<?xml version="1.0" standalone="no"?><!DOCTYPE svg PUBLIC "-//W3C//DTD SVG 1.1//EN" "http://www.w3.org/Graphics/SVG/1.1/DTD/svg11.dtd"><svg t="1688009134765" class="icon" viewBox="0 0 1024 1024" version="1.1" xmlns="http://www.w3.org/2000/svg" p-id="2767" xmlns:xlink="http://www.w3.org/1999/xlink" width="200" height="200"><path d="M260.17185185 730.21060741c0-176.34038518 142.96557037-319.18459259 319.1845926-319.18459259s319.18459259 142.96557037 319.18459258 319.18459259" fill="#1296db" p-id="2768"></path><path d="M579.35644445 411.02601482c-20.26761482 0-39.92841482 2.06317037-59.10376297 5.70405926 148.06281482 27.79211852 260.08082963 157.40776297 260.08082963 313.48053333h118.20752592c0.12136297-176.21902222-142.84420741-319.18459259-319.18459258-319.18459259z" fill="#1296db" p-id="2769"></path><path d="M827.66506667 724.74927408c-10.07312592 0-18.20444445-8.13131852-18.20444445-18.20444445 0-80.34228148-31.31164445-155.95140741-88.10951111-212.87063704-56.79786667-56.79786667-132.40699259-88.10951111-212.87063703-88.10951111-80.34228148 0-155.95140741 31.31164445-212.87063705 88.10951111-56.79786667 56.79786667-88.10951111 132.40699259-88.10951111 212.87063704 0 10.07312592-8.13131852 18.20444445-18.20444444 18.20444445s-18.20444445-8.13131852-18.20444445-18.20444445c0-90.17268148 35.0738963-174.88402963 98.78945186-238.59958518 63.71555555-63.71555555 148.4269037-98.78945185 238.59958519-98.78945186s174.88402963 35.0738963 238.59958517 98.78945186c63.71555555 63.71555555 98.78945185 148.4269037 98.78945186 238.59958518 0 10.07312592-8.13131852 18.20444445-18.20444444 18.20444445z" fill="#1296db" p-id="2770"></path><path d="M1000.00047408 745.6237037H36.25718518c-10.07312592 0-18.20444445-8.13131852-18.20444443-18.20444445s8.13131852-18.20444445 18.20444443-18.20444443h963.7432889c10.07312592 0 18.20444445 8.13131852 18.20444444 18.20444443s-8.13131852 18.20444445-18.20444444 18.20444445zM807.15472592 834.0973037H228.98157037c-10.07312592 0-18.20444445-8.13131852-18.20444445-18.20444445s8.13131852-18.20444445 18.20444445-18.20444443h578.29451852c10.07312592 0 18.20444445 8.13131852 18.20444444 18.20444443s-8.25268148 18.20444445-18.32580741 18.20444445zM625.59573333 932.03721482H410.66192592c-10.07312592 0-18.20444445-8.13131852-18.20444444-18.20444445s8.13131852-18.20444445 18.20444444-18.20444445h214.93380741c10.07312592 0 18.20444445 8.13131852 18.20444445 18.20444445s-8.25268148 18.20444445-18.20444445 18.20444445zM108.34678518 668.55822222h-77.06548148c-10.07312592 0-18.20444445-8.13131852-18.20444445-18.20444444s8.13131852-18.20444445 18.20444445-18.20444445h77.06548148c10.07312592 0 18.20444445 8.13131852 18.20444445 18.20444445s-8.13131852 18.20444445-18.20444445 18.20444444zM516.73315555 283.10945185c-10.07312592 0-18.20444445-8.13131852-18.20444444-18.20444444V110.65268148c0-10.07312592 8.13131852-18.20444445 18.20444444-18.20444445s18.20444445 8.13131852 18.20444445 18.20444445v154.25232593c0 10.07312592-8.13131852 18.20444445-18.20444445 18.20444444zM219.51525925 403.8656c-4.61179259 0-9.34494815-1.82044445-12.86447407-5.33997037l-68.20598518-68.20598518c-7.16041482-7.16041482-7.16041482-18.6898963 0-25.72894815 7.16041482-7.16041482 18.6898963-7.16041482 25.72894815 0l68.20598518 68.20598518c7.16041482 7.16041482 7.16041482 18.6898963 0 25.72894815-3.51952592 3.64088889-8.25268148 5.33997037-12.86447408 5.33997037zM806.66927408 403.8656c-4.61179259 0-9.34494815-1.82044445-12.86447408-5.33997037-7.16041482-7.16041482-7.16041482-18.6898963 0-25.72894815l68.20598518-68.20598518c7.16041482-7.16041482 18.6898963-7.16041482 25.72894815 0 7.16041482 7.16041482 7.16041482 18.6898963 0 25.72894815l-68.20598518 68.20598518c-3.51952592 3.64088889-8.13131852 5.33997037-12.86447407 5.33997037z" fill="#1296db" p-id="2771"></path><path d="M426.07502222 551.07887408a22.81623703 21.60260741 0 1 0 45.63247408 0 22.81623703 21.60260741 0 1 0-45.63247408 0Z" fill="#1296db" p-id="2772"></path><path d="M562.85108148 551.07887408a22.81623703 21.60260741 0 1 0 45.63247407 0 22.81623703 21.60260741 0 1 0-45.63247407 0Z" fill="#1296db" p-id="2773"></path><path d="M486.87786667 591.49274075c0 15.89854815 13.59265185 28.76302222 30.34074074 28.76302222s30.34074075-12.86447408 30.34074074-28.76302222h-60.68148148z" fill="#1296db" p-id="2774"></path><path d="M384.44752592 604.96402963a26.57848889 25.12213333 0 1 0 53.15697778 0 26.57848889 25.12213333 0 1 0-53.15697778 0Z" fill="#1296db" p-id="2775"></path><path d="M597.07543703 604.96402963a26.57848889 25.12213333 0 1 0 53.15697779 0 26.57848889 25.12213333 0 1 0-53.15697779 0Z" fill="#1296db" p-id="2776"></path></svg>